<svg width="30" height="30" viewBox="0 0 30 30" fill="none" xmlns="http://www.w3.org/2000/svg">
<path d="M21.0628 0H8.93716C4.00919 0 0 4.00919 0 8.93716V21.0628C0 25.9908 4.00919 30 8.93716 30H21.0628C25.9908 30 30 25.9908 30 21.0628V8.93716C29.9999 4.00919 25.9908 0 21.0628 0ZM26.982 21.0628C26.982 24.3319 24.3319 26.982 21.0628 26.982H8.93716C5.66813 26.982 3.018 24.3319 3.018 21.0628V8.93716C3.018 5.66807 5.66813 3.018 8.93716 3.018H21.0628C24.3319 3.018 26.982 5.66807 26.982 8.93716V21.0628Z" fill="url(#paint0_linear_3_167)"/>
<path d="M15 7.24097C10.7216 7.24097 7.24091 10.7217 7.24091 15C7.24091 19.2783 10.7216 22.759 15 22.759C19.2783 22.759 22.759 19.2783 22.759 15C22.759 10.7216 19.2783 7.24097 15 7.24097ZM15 19.7411C12.3815 19.7411 10.2589 17.6185 10.2589 15C10.2589 12.3816 12.3816 10.259 15 10.259C17.6184 10.259 19.741 12.3816 19.741 15C19.741 17.6184 17.6184 19.7411 15 19.7411Z" fill="url(#paint1_linear_3_167)"/>
<path d="M22.7738 9.15854C23.8006 9.15854 24.633 8.32616 24.633 7.29936C24.633 6.27257 23.8006 5.44019 22.7738 5.44019C21.7471 5.44019 20.9147 6.27257 20.9147 7.29936C20.9147 8.32616 21.7471 9.15854 22.7738 9.15854Z" fill="url(#paint2_linear_3_167)"/>
<defs>
<linearGradient id="paint0_linear_3_167" x1="15" y1="29.9126" x2="15" y2="0.233004" gradientUnits="userSpaceOnUse">
<stop stop-color="#E09B3D"/>
<stop offset="0.3" stop-color="#C74C4D"/>
<stop offset="0.6" stop-color="#C21975"/>
<stop offset="1" stop-color="#7024C4"/>
</linearGradient>
<linearGradient id="paint1_linear_3_167" x1="15" y1="29.9126" x2="15" y2="0.23304" gradientUnits="userSpaceOnUse">
<stop stop-color="#E09B3D"/>
<stop offset="0.3" stop-color="#C74C4D"/>
<stop offset="0.6" stop-color="#C21975"/>
<stop offset="1" stop-color="#7024C4"/>
</linearGradient>
<linearGradient id="paint2_linear_3_167" x1="22.7738" y1="29.9127" x2="22.7738" y2="0.233074" gradientUnits="userSpaceOnUse">
<stop stop-color="#E09B3D"/>
<stop offset="0.3" stop-color="#C74C4D"/>
<stop offset="0.6" stop-color="#C21975"/>
<stop offset="1" stop-color="#7024C4"/>
</linearGradient>
</defs>
</svg>
