<svg width="29" height="29" viewBox="0 0 29 29" fill="none" xmlns="http://www.w3.org/2000/svg">
<path d="M14.5 0C6.49181 0 0 6.49181 0 14.5C0 22.5082 6.49181 29 14.5 29C22.5082 29 29 22.5082 29 14.5C29 6.49181 22.5082 0 14.5 0Z" fill="#40B3E0"/>
<path d="M21.5554 8.34097L18.9656 21.3986C18.9656 21.3986 18.6035 22.3041 17.6074 21.8695L11.6309 17.2875L9.45769 16.2371L5.79939 15.0055C5.79939 15.0055 5.23797 14.8064 5.18359 14.3717C5.12933 13.9371 5.81751 13.7017 5.81751 13.7017L20.3601 7.99682C20.3601 7.99682 21.5554 7.47165 21.5554 8.34097Z" fill="white"/>
<path d="M11.1715 21.2519C11.1715 21.2519 10.9971 21.2356 10.7797 20.5473C10.5624 19.8591 9.4577 16.237 9.4577 16.237L18.2412 10.6591C18.2412 10.6591 18.7484 10.3512 18.7302 10.6591C18.7302 10.6591 18.8207 10.7133 18.5491 10.9668C18.2774 11.2205 11.649 17.1787 11.649 17.1787" fill="#D2E5F1"/>
<path d="M13.9224 19.0444L11.5585 21.1997C11.5585 21.1997 11.3737 21.3399 11.1715 21.252L11.6242 17.2485" fill="#B5CFE4"/>
</svg>
